<?xml version="1.0" encoding="utf-8"?>
<!-- Generator: Adobe Illustrator 19.1.0, SVG Export Plug-In . SVG Version: 6.00 Build 0)  -->
<svg version="1.1" id="Layer_1" xmlns="http://www.w3.org/2000/svg" xmlns:xlink="http://www.w3.org/1999/xlink" x="0px" y="0px"
	 viewBox="0 0 920.3 159.4" style="enable-background:new 0 0 920.3 159.4;" xml:space="preserve">
<style type="text/css">
	.st0{fill:#A03227;}
	.st1{fill:#C4402B;}
	.st2{fill:#FFFFFF;}
</style>
<g>
	<rect y="0" class="st0" width="175.7" height="159.4"/>
	<rect y="0" class="st1" width="175.7" height="3.2"/>
	<rect y="7.1" class="st1" width="175.7" height="3.2"/>
	<rect y="14.2" class="st1" width="175.7" height="3.2"/>
	<rect y="21.3" class="st1" width="175.7" height="3.2"/>
	<rect y="28.3" class="st1" width="175.7" height="3.2"/>
	<rect y="35.4" class="st1" width="175.7" height="3.2"/>
	<rect y="42.5" class="st1" width="175.7" height="3.2"/>
	<rect y="49.6" class="st1" width="175.7" height="3.2"/>
	<rect y="56.7" class="st1" width="175.7" height="3.2"/>
	<rect y="63.8" class="st1" width="175.7" height="3.2"/>
	<rect y="70.9" class="st1" width="175.7" height="3.2"/>
	<rect y="78" class="st1" width="175.7" height="3.2"/>
	<rect y="92.1" class="st1" width="175.7" height="3.2"/>
	<rect y="99.2" class="st1" width="175.7" height="3.2"/>
	<rect y="106.3" class="st1" width="175.7" height="3.2"/>
	<rect y="113.4" class="st1" width="175.7" height="3.2"/>
	<rect y="120.5" class="st1" width="175.7" height="3.2"/>
	<rect y="127.9" class="st1" width="175.7" height="3.2"/>
	<rect y="135" class="st1" width="175.7" height="3.2"/>
	<rect y="142" class="st1" width="175.7" height="3.2"/>
	<rect y="149.1" class="st1" width="175.7" height="3.2"/>
	<rect y="156.2" class="st1" width="175.7" height="3.2"/>
	<rect y="85" class="st1" width="175.7" height="3.2"/>
</g>
<g>
	<g>
		<path class="st2" d="M232.6,51.3h-12.1V15h-9.7V4.7h31.5V15h-9.7V51.3z"/>
		<path class="st2" d="M271.9,22.7v-18H284v46.6h-12.1V32.2h-16.6v19.1h-12.1V4.7h12.1v18H271.9z"/>
		<path class="st2" d="M300.8,15v7.8h13.2V33h-13.2v8h14v10.3h-26V4.7h26V15H300.8z"/>
	</g>
	<g>
		<path class="st2" d="M259.5,80.1c-3.7-2-7.7-3-11.7-3.1c-1.4,0-3.1,0.3-4.9,0.8c-1.8,0.7-2.8,1.9-2.9,3.5c0,1,0.4,1.8,1.3,2.5
			c0.8,0.8,1.8,1.3,3,1.6c2.5,0.6,4.7,1.1,6.5,1.5c5.3,0.9,9.5,2.8,12.8,5.8c3.3,2.9,4.9,7.2,5,13.1c-0.2,8.2-3.2,14.3-9.2,18.1
			c-5.9,3.7-12.7,5.6-20.4,5.6c-9.1-0.1-17.5-2.5-25.2-7.3l8.1-15.7c2.5,1.7,5.4,3.1,8.7,4.4c3.2,1.4,6.2,2.1,9.1,2.1
			c1.6,0,3.1-0.4,4.7-1.2c1.5-0.8,2.3-2,2.4-3.6c-0.1-2.4-1.6-4-4.5-4.8c-1.3-0.5-2.7-1-4.5-1.3c-1.8-0.2-3.7-0.6-5.6-1
			c-1.7-0.5-3.3-1.2-4.9-2c-1.5-0.7-3-1.7-4.3-2.8c-2.9-2.4-4.4-6.4-4.4-11.9c0.2-7.8,3.1-13.5,9-17.2c5.5-3.6,11.9-5.3,19.1-5.3
			c7-0.1,13.8,1.3,20.3,4.1L259.5,80.1z"/>
		<path class="st2" d="M296.4,70.9h0.2c2.2-3.2,4.9-5.6,8.2-7.1c3.3-1.5,6.8-2.2,10.4-2.2c9.4,0.2,16.9,3.6,22.6,10.2
			c5.6,6.4,8.4,14.4,8.5,23.9c-0.1,9.4-2.9,17.3-8.5,23.7c-5.6,6.5-13.1,9.9-22.4,10.1c-3.5,0-7-0.7-10.3-2.1
			c-3.4-1.3-6.3-3.3-8.8-6.1v37.8h-21.8V63.7h21.8V70.9z M309.8,81.3c-4.5,0.1-8,1.5-10.4,4.2c-2.5,2.7-3.7,6.1-3.7,10.2
			c0,4,1.2,7.4,3.7,10c2.4,2.8,5.9,4.2,10.4,4.2c4.5,0,8-1.4,10.5-4.2c2.4-2.7,3.6-6,3.6-10c0-4.1-1.2-7.5-3.6-10.2
			C317.8,82.7,314.3,81.3,309.8,81.3z"/>
		<path class="st2" d="M421,127.3h-21.8v-7.1H399c-2,3.1-4.6,5.3-7.9,6.8c-3.4,1.6-7,2.4-10.7,2.4c-9.2-0.2-16.6-3.6-22.3-10.3
			c-5.8-6.5-8.7-14.4-8.8-23.7c0.1-9.4,3-17.4,8.7-23.8c5.5-6.5,12.9-9.9,22.2-10.1c3.7,0,7.3,0.6,10.6,1.9c3.4,1.3,6.2,3.5,8.5,6.4
			v-6.2H421V127.3z M385.9,81.3c-4.5,0.1-8,1.5-10.3,4.2c-2.5,2.7-3.8,6.1-3.8,10.2c0,4,1.3,7.4,3.8,10c2.4,2.8,5.8,4.2,10.3,4.2
			c4.5,0,7.9-1.4,10.5-4.2c2.4-2.7,3.6-6,3.6-10c0-4.1-1.2-7.5-3.6-10.2C393.9,82.7,390.4,81.3,385.9,81.3z"/>
		<path class="st2" d="M475.9,84.4c-1.6-1.2-3.3-2.3-5.2-3.2c-2-0.8-4-1.2-6.2-1.2c-4.3,0.1-7.8,1.5-10.5,4.3
			c-3,2.9-4.5,6.7-4.5,11.2c0,4.6,1.5,8.4,4.5,11.2c2.7,3,6.3,4.5,10.9,4.5c4.2,0,7.8-1.5,11-4.4v19c-2.4,1.2-4.9,2.1-7.4,2.6
			c-2.7,0.7-5.3,1-8,1c-9.3-0.2-17.2-3.3-23.5-9.6c-6.6-6-9.9-13.9-10-23.7c0.1-10.5,3.4-18.9,10.1-25.1c6.4-6.3,14.5-9.4,24.4-9.5
			c5.2,0,10,1.2,14.4,3.7V84.4z"/>
		<path class="st2" d="M547.8,99.3h-46c0,9.4,4.6,14.1,13.7,14.2c4.7,0.1,8.1-1.9,10.4-5.9l21.1,0.1c-1.9,7.4-5.8,12.9-11.7,16.5
			c-5.8,3.5-12.4,5.3-19.7,5.3c-10.4,0-18.9-2.9-25.4-8.8c-6.7-5.8-10.1-14.1-10.2-25c0.1-10.7,3.3-19.1,9.6-25.1
			c6.2-5.9,14.3-8.8,24.5-8.9c22.1,0.5,33.4,12.3,33.7,35.3V99.3z M527.5,86.3c-0.5-3.2-2-5.6-4.2-7.3c-2.3-1.8-5-2.7-8.2-2.7
			c-3.2,0-6,0.8-8.3,2.5c-2.3,1.7-3.9,4.3-4.7,7.6H527.5z"/>
	</g>
	<g>
		<path class="st2" d="M567.6,33.9h36.7c10.1,0,18.2,2.4,24.3,7.2c6.1,5,9.2,12.8,9.3,23.6c-0.3,21.4-11.1,32-32.6,31.7h-13.6v31
			h-24.2V33.9z M591.8,76.7h4.1c2.2,0,4.4-0.1,6.6-0.2c2.1-0.1,4-0.5,5.6-1.2c1.7-0.8,3-1.9,3.9-3.4c0.9-1.5,1.4-3.6,1.4-6.5
			c0-3-0.5-5.3-1.4-6.9c-0.8-1.6-2-2.7-3.7-3.4c-1.6-0.7-3.4-1.2-5.6-1.3c-2.2-0.1-4.5-0.2-6.9-0.2h-4.1V76.7z"/>
		<path class="st2" d="M667.5,106.8h28.2v20.6h-52.5V33.9h24.2V106.8z"/>
		<path class="st2" d="M733.1,111.1l-6.2,16.2h-25l34.8-93.5h25.7l34.1,93.5h-25.1l-5.9-16.2H733.1z M749.6,62.7h-0.2l-9.7,29.9
			h19.6L749.6,62.7z"/>
		<path class="st2" d="M859.2,66c-5.3-6.7-12.2-10-20.7-10.1c-7.3,0.1-13.1,2.5-17.4,7.3c-4.4,4.8-6.7,10.9-6.8,18.2
			c0.1,7.3,2.4,13.2,6.9,17.8c4.3,4.7,10.2,7.1,17.7,7.2c8.2-0.1,14.9-3.3,20.3-9.8v28.9c-3.8,1.2-7.2,2.2-10.4,2.9
			c-3.3,0.9-6.7,1.4-10.3,1.4c-13-0.1-24.3-4.6-34-13.6c-9.8-9.4-14.6-21.1-14.5-35c0.1-13.1,4.5-24.4,13.4-33.8
			c9.6-9.9,21-14.9,34.4-15.1c7.5,0.1,14.6,1.7,21.5,4.7V66z"/>
		<path class="st2" d="M892.7,54.4v15.6h26.5v20.6h-26.5v16.1h28v20.6h-52.2V33.9h52.2v20.6H892.7z"/>
	</g>
</g>
</svg>
