<svg version="1.1" id="Layer_1" xmlns="http://www.w3.org/2000/svg" xmlns:xlink="http://www.w3.org/1999/xlink" x="0px" y="0px"
	 viewBox="-308 248.6 341.2 71.4" style="enable-background:new -308 248.6 341.2 71.4;" xml:space="preserve">
<style type="text/css">
	.st0{fill:#932210;}
</style>
<g>
	<path class="st0" d="M-295,267.5h-4.9v-14.8h-3.9v-4.1h12.7v4.1h-3.9V267.5z"/>
	<path class="st0" d="M-279.5,255.9v-7.3h4.9v18.9h-4.9v-7.7h-6.7v7.7h-4.9v-18.9h4.9v7.3L-279.5,255.9L-279.5,255.9z"/>
	<path class="st0" d="M-268.2,252.7v3.1h5.4v4.2h-5.4v3.3h5.7v4.1H-273v-18.9h10.5v4.1C-262.5,252.7-268.2,252.7-268.2,252.7z"/>
</g>
<g>
	<path class="st0" d="M-284.8,282.9c-1.8-0.9-3.6-1.4-5.6-1.5c-0.7,0-1.5,0.1-2.3,0.4c-0.9,0.3-1.3,0.9-1.4,1.6
		c0,0.5,0.2,0.9,0.6,1.2c0.4,0.4,0.9,0.6,1.4,0.8c1.2,0.3,2.2,0.5,3.1,0.7c2.5,0.4,4.5,1.4,6.1,2.7c1.6,1.4,2.3,3.4,2.4,6.2
		c-0.1,3.9-1.5,6.8-4.4,8.6c-2.8,1.8-6,2.6-9.7,2.6c-4.3,0-8.3-1.2-12-3.5l3.9-7.5c1.2,0.8,2.6,1.5,4.1,2.1c1.5,0.7,3,1,4.3,1
		c0.7,0,1.5-0.2,2.2-0.6c0.7-0.4,1.1-0.9,1.1-1.7c0-1.2-0.8-1.9-2.1-2.3c-0.6-0.2-1.3-0.5-2.1-0.6c-0.9-0.1-1.7-0.3-2.7-0.5
		c-0.8-0.2-1.6-0.5-2.3-0.9c-0.7-0.3-1.4-0.8-2.1-1.4c-1.4-1.1-2.1-3-2.1-5.7c0.1-3.7,1.5-6.4,4.2-8.2c2.6-1.7,5.6-2.5,9-2.5
		c3.3,0,6.5,0.6,9.6,1.9L-284.8,282.9z"/>
	<path class="st0" d="M-267.3,278.5L-267.3,278.5c1.1-1.5,2.4-2.7,4-3.4c1.6-0.7,3.2-1,5-1c4.4,0.1,8,1.7,10.7,4.8
		c2.7,3,4,6.8,4,11.4c0,4.5-1.4,8.2-4,11.2c-2.7,3.1-6.2,4.7-10.6,4.8c-1.7,0-3.3-0.3-4.9-1c-1.6-0.6-3-1.6-4.2-2.9v17.9h-10.4
		v-45.2h10.3v3.4H-267.3z M-261,283.4c-2.1,0-3.8,0.7-5,2c-1.2,1.3-1.8,2.9-1.8,4.8s0.6,3.5,1.8,4.8c1.2,1.3,2.8,2,5,2
		c2.1,0,3.8-0.7,5-2c1.1-1.3,1.7-2.9,1.7-4.8s-0.6-3.5-1.7-4.8C-257.2,284.1-258.8,283.4-261,283.4z"/>
	<path class="st0" d="M-208.2,305.3h-10.3v-3.4h-0.1c-0.9,1.5-2.2,2.5-3.8,3.2c-1.6,0.7-3.3,1.1-5.1,1.1c-4.4-0.1-7.9-1.7-10.6-4.9
		c-2.7-3.1-4.1-6.8-4.2-11.2c0-4.5,1.4-8.2,4.1-11.3c2.6-3.1,6.1-4.7,10.5-4.8c1.8,0,3.4,0.3,5,0.9s2.9,1.6,4,3v-3h10.3v30.4H-208.2
		z M-224.8,283.4c-2.1,0-3.8,0.7-4.9,2c-1.2,1.3-1.8,2.9-1.8,4.8s0.6,3.5,1.8,4.8c1.1,1.3,2.8,2,4.9,2s3.8-0.7,5-2
		c1.1-1.3,1.7-2.9,1.7-4.8s-0.6-3.5-1.7-4.8C-221.1,284.1-222.7,283.4-224.8,283.4z"/>
	<path class="st0" d="M-181.8,284.9c-0.8-0.6-1.6-1.1-2.5-1.5c-0.9-0.4-1.9-0.6-2.9-0.6c-2.1,0-3.7,0.7-5,2
		c-1.4,1.4-2.1,3.2-2.1,5.3c0,2.2,0.7,4,2.1,5.3c1.3,1.4,3,2.1,5.2,2.1c2,0,3.7-0.7,5.2-2.1v9c-1.1,0.6-2.3,1-3.5,1.2
		c-1.3,0.3-2.5,0.5-3.8,0.5c-4.4-0.1-8.1-1.6-11.1-4.5c-3.1-2.9-4.7-6.6-4.7-11.2c0-5,1.6-8.9,4.8-11.9c3-3,6.9-4.5,11.6-4.5
		c2.5,0,4.7,0.6,6.8,1.7L-181.8,284.9L-181.8,284.9z"/>
	<path class="st0" d="M-147.4,292h-21.8c0,4.4,2.2,6.7,6.5,6.7c2.2,0,3.9-0.9,5-2.8h10c-0.9,3.5-2.8,6.1-5.5,7.8
		c-2.8,1.7-5.9,2.5-9.3,2.5c-4.9,0-9-1.4-12.1-4.2c-3.2-2.7-4.8-6.7-4.8-11.9c0-5.1,1.6-9.1,4.6-11.9c2.9-2.8,6.8-4.2,11.6-4.2
		c10.5,0.2,15.8,5.8,16,16.8v1.2H-147.4z M-157,285.8c-0.3-1.5-0.9-2.7-2-3.5c-1.1-0.9-2.4-1.3-3.9-1.3s-2.8,0.4-3.9,1.2
		c-1.1,0.8-1.9,2-2.2,3.6H-157z"/>
</g>
<g>
	<path class="st0" d="M-133.7,260.9h17.4c4.8,0,8.7,1.1,11.5,3.4c2.9,2.4,4.4,6.1,4.4,11.2c-0.1,10.2-5.3,15.2-15.5,15.1h-6.4v14.7
		h-11.5v-44.4H-133.7z M-122.2,281.3h2c1.1,0,2.1,0,3.1-0.1c1,0,1.9-0.2,2.7-0.6s1.4-0.9,1.9-1.6c0.4-0.7,0.7-1.7,0.7-3.1
		c0-1.4-0.2-2.5-0.7-3.3c-0.4-0.7-1-1.3-1.8-1.6c-0.7-0.3-1.6-0.6-2.7-0.6c-1-0.1-2.1-0.1-3.3-0.1h-2v11H-122.2z"/>
	<path class="st0" d="M-86.2,295.5h13.4v9.8h-24.9v-44.4h11.5V295.5z"/>
	<path class="st0" d="M-56,297.6l-2.9,7.7h-11.8l16.5-44.4H-42l16.2,44.4h-11.9l-2.8-7.7C-40.5,297.6-56,297.6-56,297.6z
		 M-48.2,274.6h-0.1l-4.6,14.2h9.3L-48.2,274.6z"/>
	<path class="st0" d="M3.9,276.1c-2.5-3.2-5.8-4.8-9.8-4.8c-3.5,0-6.2,1.2-8.3,3.5c-2.1,2.3-3.2,5.2-3.2,8.6c0,3.5,1.1,6.3,3.3,8.5
		c2,2.2,4.8,3.4,8.4,3.4c3.9,0,7.1-1.6,9.6-4.6v13.7c-1.8,0.6-3.4,1.1-5,1.4c-1.6,0.4-3.2,0.7-4.9,0.7c-6.2,0-11.5-2.2-16.1-6.5
		c-4.6-4.5-6.9-10-6.9-16.6c0-6.2,2.2-11.6,6.3-16.1c4.5-4.7,10-7.1,16.3-7.2c3.5,0,6.9,0.8,10.2,2.2v13.8H3.9z"/>
	<path class="st0" d="M19.8,270.7v7.4h12.6v9.8H19.8v7.6h13.3v9.8H8.3v-44.4h24.8v9.8H19.8z"/>
</g>
</svg>
